<?xml version="1.0" standalone="no"?>
<!DOCTYPE svg PUBLIC "-//W3C//DTD SVG 20010904//EN"
 "http://www.w3.org/TR/2001/REC-SVG-20010904/DTD/svg10.dtd">
<svg version="1.0" xmlns="http://www.w3.org/2000/svg"
  viewBox="0 0 500.000000 180.000000"
 preserveAspectRatio="xMidYMid meet">
<metadata>
Created by potrace 1.16, written by Peter Selinger 2001-2019
</metadata>
<g transform="translate(0.000000,180.000000) scale(0.100000,-0.100000)"
fill="#000000" stroke="none">
<path d="M1245 1661 c-71 -44 -150 -161 -249 -370 -61 -126 -85 -191 -111
-296 -45 -176 -61 -291 -46 -327 15 -39 55 -38 76 2 30 59 108 161 208 274 31
36 27 21 -20 -70 -39 -76 -66 -177 -58 -220 7 -39 65 -94 99 -94 26 0 75 49
115 113 l23 38 18 -29 c43 -71 122 -93 185 -52 32 21 135 130 135 142 0 14 39
48 55 48 10 0 15 -11 15 -35 0 -38 29 -75 58 -74 10 0 36 30 65 76 26 41 49
74 51 72 2 -2 -1 -34 -6 -72 -12 -77 -1 -105 53 -132 39 -20 59 -13 103 35
l36 40 0 -53 c0 -59 16 -89 60 -112 75 -39 107 -18 250 163 l95 121 12 -52
c15 -62 16 -97 4 -97 -4 0 -37 -22 -72 -49 -43 -32 -71 -62 -83 -88 -17 -38
-17 -43 -2 -72 27 -52 60 -65 155 -62 24 1 43 11 71 39 44 44 63 101 58 175
l-3 50 63 38 c34 21 62 34 62 30 0 -4 -9 -47 -20 -97 -28 -129 -27 -169 9
-205 57 -57 88 -39 215 130 127 169 179 249 173 265 -4 9 -11 16 -16 16 -5 0
-54 -57 -109 -127 -55 -71 -121 -150 -146 -178 l-45 -50 -1 32 c0 49 62 253
127 413 l59 145 84 10 c68 8 86 13 88 28 3 15 -5 17 -67 17 -39 0 -71 2 -71 5
0 14 47 96 88 154 36 49 43 67 35 80 -11 18 -53 26 -89 17 -26 -7 -89 -97
-144 -205 l-30 -61 -73 -1 c-78 0 -163 -12 -174 -23 -18 -18 29 -27 125 -23
56 2 102 1 102 -1 0 -8 -60 -173 -75 -207 -15 -33 -42 -55 -127 -103 l-56 -32
-16 69 c-19 84 -20 104 -4 147 23 64 -31 86 -84 34 -29 -29 -30 -34 -26 -93 3
-34 3 -56 0 -49 -8 26 -33 10 -84 -55 -30 -38 -61 -80 -71 -95 -20 -33 -113
-108 -132 -108 -21 0 -25 30 -12 98 11 59 15 65 47 78 52 22 118 81 141 126
37 73 1 128 -86 128 -48 0 -116 -63 -155 -144 -27 -57 -50 -82 -148 -160 -13
-10 -25 -16 -27 -14 -2 2 3 26 11 53 8 28 17 57 19 66 2 9 20 38 39 64 53 68
45 135 -14 135 -24 0 -40 -12 -86 -67 -31 -38 -70 -88 -86 -113 l-30 -45 6 42
c7 46 38 114 62 134 33 28 0 74 -48 67 -25 -4 -28 -9 -65 -108 -27 -75 -37
-90 -60 -90 -9 0 -10 7 -4 23 5 12 12 46 16 74 6 45 3 58 -15 88 -23 37 -65
65 -98 65 -29 0 -66 -33 -92 -84 -14 -25 -34 -47 -45 -50 -32 -8 -92 -71 -119
-124 -28 -55 -150 -190 -162 -180 -13 13 16 118 58 215 46 105 49 136 20 165
-40 41 -93 2 -219 -159 -32 -40 -58 -71 -60 -69 -1 1 8 34 20 73 21 63 35 83
117 172 108 117 135 154 195 272 73 144 96 278 55 319 -25 25 -56 25 -95 1z
m65 -79 c0 -28 -33 -119 -67 -187 -56 -110 -218 -342 -189 -269 5 10 17 43 27
73 10 30 47 106 80 170 111 210 149 264 149 213z m305 -589 c-3 -24 -13 -66
-21 -94 -12 -41 -19 -49 -39 -49 -35 0 -56 26 -49 58 31 129 127 204 109 85z
m-133 -148 c16 -14 38 -25 49 -25 27 0 24 -16 -17 -72 -36 -49 -105 -94 -125
-82 -17 10 -4 82 26 147 14 31 29 57 32 57 3 0 18 -11 35 -25z"/>
<path d="M3593 1478 c-32 -34 -117 -166 -151 -234 -97 -193 -187 -532 -180
-682 3 -80 4 -85 36 -113 41 -37 78 -37 129 0 42 31 122 126 171 206 30 48 31
48 30 19 -3 -116 105 -103 241 29 41 40 71 65 68 56 -2 -8 -13 -44 -23 -79
-16 -58 -25 -71 -97 -139 -75 -72 -190 -210 -216 -258 -6 -12 -11 -40 -11 -61
0 -83 116 -135 183 -82 39 31 110 181 163 345 l47 144 128 103 c93 75 128 109
128 126 1 12 -4 22 -10 22 -6 0 -49 -30 -96 -67 -128 -102 -125 -100 -114 -72
5 13 21 44 35 69 35 61 34 94 -3 110 -35 14 -51 7 -83 -37 -57 -78 -107 -133
-162 -176 -72 -57 -91 -60 -83 -13 6 40 49 153 80 214 26 51 16 77 -29 77 -31
0 -42 -15 -214 -286 -108 -171 -178 -234 -195 -178 -10 31 3 141 27 234 16 63
33 97 78 160 155 218 243 379 255 465 5 37 2 51 -17 80 -31 45 -82 53 -115 18z
m217 -1092 c-41 -104 -94 -196 -117 -203 -6 -3 -17 6 -23 18 -24 43 9 105 128
247 25 29 47 51 49 48 2 -2 -14 -52 -37 -110z"/>
</g>
</svg>
