<?xml version="1.0" standalone="no"?>
<!DOCTYPE svg PUBLIC "-//W3C//DTD SVG 20010904//EN"
 "http://www.w3.org/TR/2001/REC-SVG-20010904/DTD/svg10.dtd">
<svg version="1.0" xmlns="http://www.w3.org/2000/svg"
 width="4201.000000pt" height="3301.000000pt" viewBox="0 0 4201.000000 3301.000000"
 preserveAspectRatio="xMidYMid meet">
<metadata>
Created by potrace 1.16, written by Peter Selinger 2001-2019
</metadata>
<g transform="translate(0.000000,3301.000000) scale(0.100000,-0.100000)"
fill="#000000" stroke="none">
<path d="M27859 24868 c-127 -7 -306 -44 -438 -89 -122 -42 -392 -179 -486
-247 -212 -153 -370 -452 -421 -794 -19 -129 -14 -382 10 -523 l14 -80 -43
-170 c-24 -93 -57 -208 -74 -254 -17 -47 -31 -99 -31 -115 1 -100 100 -187
249 -217 l62 -13 96 -121 c228 -286 443 -509 535 -556 20 -10 56 -19 79 -19
81 0 320 132 451 249 52 48 141 155 150 183 3 8 17 1 41 -18 20 -16 37 -32 37
-35 0 -4 -34 -33 -77 -64 -311 -235 -582 -546 -664 -764 -20 -54 -242 -941
-385 -1542 l-69 -286 -95 23 c-52 13 -311 75 -575 139 -379 92 -1513 364
-1623 390 -18 4 -21 10 -16 30 7 30 1 31 -34 7 -27 -18 -30 -18 -312 49 -188
45 -306 68 -347 69 l-63 0 0 610 0 609 -100 3 -100 3 197 330 c148 248 210
362 249 460 60 146 65 168 33 139 -76 -69 -191 -239 -388 -572 l-213 -362 -54
0 -54 0 5 38 c34 236 65 584 64 720 -1 179 -9 223 -29 152 -7 -25 -23 -83 -36
-130 -15 -55 -38 -208 -64 -428 -22 -189 -40 -346 -40 -348 0 -2 -22 -4 -50
-4 -61 0 -59 -28 -20 310 16 140 30 287 30 325 0 98 -12 235 -20 235 -18 0
-80 -273 -97 -427 -9 -89 -19 -161 -21 -159 -2 3 -17 96 -33 208 -22 153 -40
235 -71 333 l-42 130 -11 -65 -11 -65 -8 50 c-11 67 -20 45 -46 -121 -14 -93
-20 -183 -21 -315 l-1 -184 -33 220 c-30 206 -88 441 -116 469 -5 6 -9 -56 -9
-156 0 -142 6 -208 40 -445 22 -153 43 -293 46 -310 l6 -33 -91 0 -91 0 0
-612 c0 -492 3 -623 14 -665 l14 -52 -31 -6 c-18 -2 -203 -21 -412 -41 -209
-19 -482 -45 -607 -57 -125 -13 -224 -20 -220 -17 4 3 39 31 78 63 184 148
288 343 308 582 3 39 18 359 32 713 21 522 23 649 13 673 -17 42 -90 113 -142
138 -98 48 -191 64 -374 65 -95 1 -173 2 -173 3 0 1 88 112 196 245 l197 243
224 5 224 5 -366 440 c-202 242 -375 448 -384 458 -18 18 -22 12 -116 -165
-53 -100 -103 -188 -110 -193 -7 -6 -326 -130 -709 -275 l-696 -265 0 -106 c0
-446 266 -885 674 -1113 76 -43 194 -89 210 -82 6 2 148 176 316 385 l305 382
115 -5 c236 -9 435 -78 510 -176 l27 -35 -28 -680 c-29 -699 -34 -746 -79
-868 -62 -164 -230 -336 -426 -435 l-61 -31 -1374 -136 c-2398 -238 -3752
-383 -6994 -749 -451 -51 -822 -92 -824 -90 -2 2 24 180 58 396 33 217 61 401
61 411 0 16 -25 17 -355 17 l-355 0 1 48 c1 54 13 149 20 157 3 2 34 -7 69
-21 56 -23 74 -26 155 -22 74 3 102 9 148 32 69 34 137 100 168 163 25 52 36
144 21 182 -9 24 -10 24 -131 22 -184 -4 -266 -36 -365 -141 l-47 -50 7 37
c19 108 74 386 76 389 2 2 26 -8 53 -21 65 -32 147 -47 210 -40 157 20 293
155 296 293 1 29 0 54 -2 57 -2 2 -42 11 -88 20 -164 34 -283 9 -375 -75 -25
-24 -46 -36 -46 -29 0 27 67 264 73 261 123 -58 121 -57 212 -57 82 0 97 3
157 33 110 54 180 154 182 260 l1 56 -90 18 c-163 33 -274 12 -374 -69 -25
-21 -42 -31 -39 -23 3 8 24 82 47 165 23 82 43 151 45 152 2 2 30 -9 62 -24
85 -39 179 -38 254 3 91 49 143 144 138 249 l-3 59 -60 19 c-117 36 -235 24
-297 -30 -16 -14 -16 -9 2 53 11 38 20 71 20 74 0 3 30 18 66 34 79 35 157
107 186 173 29 66 35 165 13 239 -20 71 -64 144 -86 144 -33 0 -158 -71 -193
-110 -67 -74 -81 -113 -81 -226 0 -95 2 -104 36 -172 l35 -71 -26 -67 -27 -67
-7 54 c-14 106 -64 177 -156 224 -40 20 -141 45 -186 45 -6 0 -21 -29 -33 -65
-70 -213 43 -396 254 -413 54 -4 65 -8 60 -21 -2 -9 -27 -81 -53 -161 l-49
-145 -12 37 c-32 96 -149 177 -270 186 l-68 4 -18 -43 c-27 -66 -31 -175 -10
-239 31 -95 127 -172 229 -186 24 -4 49 -10 55 -13 8 -5 -2 -55 -34 -171 -25
-90 -45 -173 -46 -184 0 -14 -9 -4 -25 29 -51 104 -143 164 -263 173 l-68 5
-19 -49 c-28 -72 -26 -215 3 -269 45 -83 125 -136 237 -155 45 -8 66 -17 66
-26 0 -8 -11 -80 -25 -160 -14 -80 -25 -150 -25 -156 0 -6 -18 10 -40 35 -54
62 -132 98 -220 105 l-68 5 -21 -68 c-66 -212 44 -384 262 -410 47 -6 57 -11
57 -26 0 -18 -15 -19 -298 -21 l-297 -3 73 -469 c40 -258 71 -470 70 -471 -2
-2 -403 -45 -891 -96 -489 -52 -893 -97 -899 -100 -6 -4 -13 -428 -19 -1215
-8 -1230 -33 -3471 -44 -4001 l-6 -293 24 -24 c13 -12 29 -25 35 -27 9 -3 9
-68 -3 -284 -19 -369 -35 -911 -35 -1212 0 -255 1 -263 48 -277 9 -3 109 -30
222 -61 l205 -56 225 56 c123 31 230 61 237 67 22 18 13 583 -18 1126 -6 107
-8 196 -6 198 3 3 669 -327 1481 -733 l1476 -738 -5 -55 c-14 -134 -35 -699
-46 -1198 -12 -530 -12 -544 7 -562 11 -10 108 -43 240 -79 l221 -61 223 54
c153 38 229 61 243 74 19 19 19 30 8 493 -11 435 -20 681 -37 989 l-6 115
1353 193 c745 106 1925 276 2622 378 698 102 1270 184 1272 182 1 -2 -3 -113
-11 -248 -15 -280 -34 -910 -34 -1111 0 -117 2 -138 18 -151 24 -22 398 -208
417 -208 41 0 481 131 493 147 8 12 12 67 12 187 0 255 -18 882 -35 1206 -8
157 -15 291 -15 298 0 6 7 12 15 12 9 0 27 11 40 25 l25 24 0 518 c0 285 -5
1462 -12 2615 -6 1154 -9 2100 -6 2104 3 3 516 75 1139 159 624 85 1671 230
2327 322 l1193 167 25 -25 25 -26 -173 -6 c-364 -14 -634 -83 -872 -224 -104
-62 -267 -223 -316 -311 -19 -35 -40 -69 -47 -76 -7 -9 -56 -15 -145 -19 -347
-16 -648 -147 -884 -384 -302 -302 -458 -706 -519 -1343 -86 -897 9 -2395 266
-4188 28 -195 48 -356 46 -359 -7 -6 -100 -17 -402 -45 -195 -17 -316 -22
-650 -23 -456 -2 -464 -3 -605 -72 -51 -25 -93 -55 -135 -98 -124 -128 -156
-188 -163 -307 -6 -96 9 -161 61 -268 96 -197 268 -311 762 -505 236 -93 318
-133 690 -343 132 -74 285 -157 340 -183 326 -154 808 -250 1189 -236 219 8
404 52 533 128 91 54 192 161 236 251 67 136 94 344 67 528 -5 36 -16 148 -25
250 -37 441 -101 799 -171 967 l-26 62 35 30 c19 17 50 54 70 83 l35 53 -29
270 c-35 323 -178 1769 -175 1772 1 1 44 -109 95 -245 202 -531 445 -1158 454
-1169 5 -7 20 -13 32 -13 19 0 28 16 65 108 23 59 60 141 82 182 l39 75 -6
-100 c-15 -276 -107 -609 -240 -875 -24 -47 -75 -139 -114 -205 -97 -163 -115
-224 -108 -369 12 -244 103 -420 237 -460 25 -8 69 -26 96 -40 131 -68 413
-104 605 -77 246 36 491 165 693 367 111 110 185 216 238 337 57 131 121 236
211 341 42 50 113 134 158 186 158 186 278 394 319 556 24 93 26 241 5 330
-26 113 -113 318 -165 393 -81 115 -204 197 -332 222 -55 11 -57 13 -74 58
-11 28 -38 66 -69 96 -49 47 -58 64 -135 253 -46 111 -81 204 -79 206 2 1 58
-3 125 -10 337 -35 447 -39 1042 -39 l602 0 0 -1612 0 -1613 -94 0 c-373 0
-961 -76 -1360 -176 -434 -109 -733 -248 -907 -423 -106 -106 -134 -167 -134
-286 0 -83 2 -95 34 -153 132 -242 583 -445 1306 -586 1003 -195 1928 -192
2742 9 611 151 1033 376 1136 605 32 71 29 179 -8 254 -99 206 -479 415 -1025
565 -396 108 -807 169 -1263 187 l-177 7 0 1622 0 1621 208 18 c821 69 1710
227 2207 391 121 40 493 199 658 281 194 97 382 260 534 461 255 339 551 937
938 1898 569 1409 768 2062 841 2755 22 216 15 597 -14 760 -78 429 -263 724
-553 879 -104 56 -174 77 -340 102 -192 30 -605 33 -799 6 -611 -86 -1088
-311 -1494 -706 -378 -369 -662 -874 -841 -1497 -48 -169 -69 -258 -185 -804
-209 -988 -396 -1740 -541 -2175 -55 -164 -134 -340 -167 -368 -20 -18 -22
-17 -119 80 -55 54 -124 132 -155 173 -175 232 -382 637 -524 1025 -25 66 -51
137 -58 158 l-14 37 32 0 c18 0 68 9 110 20 299 76 623 432 901 989 134 269
418 899 603 1336 108 255 123 295 113 295 -11 0 -430 -832 -646 -1285 -203
-426 -272 -555 -401 -752 -226 -343 -436 -529 -648 -573 -54 -11 -61 -10 -72
5 -8 10 -15 23 -17 29 -2 7 -76 11 -228 12 -233 1 -344 14 -537 64 -451 115
-964 383 -1514 792 -188 139 -358 276 -358 286 0 17 199 316 293 442 160 213
309 358 452 440 31 18 54 34 51 37 -8 8 -117 -27 -175 -57 -160 -80 -328 -249
-466 -465 -41 -65 -154 -289 -173 -344 l-12 -34 -23 19 c-126 111 -287 258
-310 281 l-28 30 160 156 c304 297 572 485 803 561 152 50 114 58 668 -132
618 -212 747 -258 1038 -366 128 -48 242 -86 254 -84 29 4 46 33 32 56 -6 9
-80 43 -166 76 l-156 59 13 46 c105 361 685 2512 685 2539 0 12 37 14 253 9
262 -5 370 -18 547 -67 94 -26 279 -115 343 -164 27 -21 51 -35 54 -32 11 10
-70 99 -131 143 -152 112 -332 173 -566 193 -114 10 -314 -2 -417 -23 -35 -8
-63 -12 -63 -10 0 18 81 156 131 223 79 108 272 300 414 414 270 216 660 446
945 559 522 207 1099 257 1620 141 699 -157 1101 -538 1215 -1154 13 -68 19
-161 22 -330 3 -220 12 -291 26 -203 19 117 27 332 18 456 -30 395 -147 665
-395 912 -258 257 -610 419 -1076 495 -258 42 -608 47 -827 11 -52 -8 -52 -8
-111 40 -149 120 -266 348 -309 600 -16 91 -16 100 3 195 29 151 26 364 -8
510 -60 257 -163 441 -309 553 -294 228 -605 322 -990 299z m322 -91 c223 -58
414 -164 611 -339 86 -76 199 -317 238 -508 26 -124 30 -299 11 -410 -17 -91
-10 -168 24 -285 69 -238 201 -441 351 -540 l57 -38 -144 -32 c-255 -58 -497
-146 -724 -264 -124 -64 -375 -216 -437 -265 l-29 -22 -58 58 c-32 32 -65 58
-74 58 -9 0 -29 -19 -45 -42 -87 -126 -299 -270 -502 -340 l-54 -18 -101 102
c-56 57 -133 143 -173 192 l-71 89 48 22 c26 12 59 37 74 54 26 31 44 77 35
86 -3 3 -29 -8 -59 -24 -30 -16 -77 -36 -106 -44 l-52 -16 -102 135 c-103 137
-123 154 -183 154 -40 0 -113 25 -137 45 -15 14 -14 21 11 93 15 42 36 112 45
154 10 42 21 75 25 73 4 -2 28 -40 53 -84 65 -112 105 -134 161 -90 45 35 36
75 -44 211 -38 65 -70 123 -70 128 0 22 640 430 875 558 152 82 180 93 172 65
-11 -35 -19 -93 -14 -93 3 0 20 27 37 59 23 43 42 64 66 76 33 16 37 15 79 -5
58 -28 166 -144 199 -215 15 -31 34 -89 43 -128 36 -171 -29 -384 -111 -363
-28 7 -36 -8 -10 -18 42 -16 77 -6 115 33 56 60 81 136 87 262 6 157 -29 262
-123 367 -74 82 -124 112 -266 158 -26 9 -167 -43 -289 -107 -163 -86 -397
-228 -673 -411 -131 -87 -240 -158 -242 -158 -5 0 -20 56 -29 108 -5 29 0 39
41 83 64 68 159 113 297 139 61 11 112 23 114 25 3 2 -8 10 -24 17 -18 8 -72
13 -139 13 -100 0 -115 -3 -160 -27 -59 -31 -108 -80 -128 -127 l-14 -34 -8
49 c-12 82 -7 304 9 404 33 207 120 424 224 561 135 178 520 384 802 429 41 6
82 13 90 15 8 2 80 2 160 1 116 -3 164 -9 241 -29z m-7008 -1685 c82 -38 184
-134 241 -226 43 -68 101 -216 94 -238 -2 -6 -76 72 -165 173 -88 101 -195
217 -238 258 l-78 74 41 -6 c23 -3 70 -18 105 -35z m-1457 -523 c84 -26 184
-75 266 -130 l60 -41 -55 -22 c-99 -41 -157 -100 -188 -191 -7 -22 -16 -44
-20 -48 -9 -12 -90 185 -133 324 -20 63 -36 118 -36 122 0 12 36 7 106 -14z
m-7692 -240 c-29 -116 -105 -321 -112 -301 -2 6 -8 9 -14 6 -14 -9 -2 42 39
161 36 104 102 250 109 242 2 -2 -8 -51 -22 -108z m-446 -427 c52 -77 96 -157
121 -217 l21 -50 -35 40 c-72 81 -225 331 -225 368 0 13 76 -78 118 -141z
m8831 -127 c22 -88 47 -256 55 -378 5 -61 3 -76 -7 -71 -45 27 -182 148 -292
259 l-130 130 90 5 c75 5 99 10 144 35 30 16 68 46 85 67 17 20 32 36 33 35 1
-1 10 -38 22 -82z m2611 -190 c17 -121 33 -230 35 -242 5 -21 2 -23 -35 -23
l-40 0 1 253 c0 138 2 248 4 242 2 -5 18 -109 35 -230z m-10861 139 c-64 -68
-234 -157 -350 -183 l-44 -10 25 20 c21 16 376 197 389 199 3 0 -6 -12 -20
-26z m-774 -349 c92 -128 199 -327 158 -294 -47 39 -190 261 -229 354 l-16 40
22 -20 c12 -11 42 -47 65 -80z m12076 -174 c31 -31 36 -59 17 -94 -27 -52 -83
-62 -123 -22 -50 49 -17 145 50 145 16 0 38 -12 56 -29z m-658 7 c53 -28 64
-92 22 -133 -50 -51 -135 -15 -135 57 1 36 14 58 45 76 26 15 41 15 68 0z
m342 -13 c53 -52 19 -146 -53 -145 -77 1 -107 101 -45 150 34 27 69 25 98 -5z
m621 1 c56 -48 22 -146 -51 -146 -73 0 -107 98 -51 146 15 13 38 24 51 24 13
0 36 -11 51 -24z m-11636 10 c0 -3 -29 -26 -64 -51 -72 -51 -170 -94 -271
-120 -73 -18 -184 -32 -174 -22 3 4 95 39 205 78 109 39 219 82 244 95 45 23
60 28 60 20z m11580 -255 c43 -5 53 -8 29 -9 -20 -1 -57 -5 -82 -8 l-45 -6 34
-101 c19 -55 32 -102 30 -104 -2 -2 -19 34 -39 79 -19 45 -39 84 -44 85 -5 2
-18 -23 -30 -54 -11 -32 -32 -88 -46 -125 l-25 -66 119 -7 c89 -6 117 -11 109
-19 -15 -15 -964 -16 -980 0 -8 8 18 13 97 18 59 4 109 8 111 10 2 2 -17 52
-42 112 -25 59 -44 109 -42 111 1 2 26 -48 55 -109 l53 -113 44 114 c67 172
69 157 -22 164 -130 12 -154 10 -147 -10 5 -16 4 -16 -9 0 -10 14 -35 21 -88
26 -64 7 -68 9 -30 11 25 1 95 6 155 10 126 9 738 2 835 -9z m-12465 -266 c66
-100 145 -255 119 -235 -52 44 -203 278 -233 365 -11 29 -10 29 25 -10 20 -22
60 -76 89 -120z m760 45 c-60 -67 -218 -140 -370 -171 -168 -35 -167 -20 5 39
181 63 275 99 327 126 59 31 61 31 38 6z m11725 -210 c43 -43 32 -112 -23
-138 -23 -11 -34 -11 -58 -2 -36 15 -49 37 -49 81 0 68 83 106 130 59z m-878
-17 c25 -23 32 -67 14 -101 -38 -74 -146 -46 -146 38 0 76 77 113 132 63z
m277 1 c38 -48 24 -112 -28 -134 -56 -23 -122 34 -107 93 17 68 96 91 135 41z
m299 4 c31 -34 35 -68 13 -104 -34 -56 -110 -51 -139 9 -16 33 -4 81 25 103
28 21 77 17 101 -8z m292 -234 c9 -9 -22 -13 -117 -19 -272 -16 -873 -5 -873
16 0 13 117 16 562 15 292 -1 421 -5 428 -12z m-11819 -82 c-58 -82 -173 -156
-311 -200 -65 -21 -189 -46 -195 -40 -2 2 51 26 118 52 154 62 322 146 367
185 44 38 46 38 21 3z m-782 -122 c63 -86 115 -174 146 -246 l25 -59 -36 40
c-64 71 -165 230 -205 322 l-20 47 21 -19 c12 -11 43 -49 69 -85z m20786 10
c232 -22 434 -79 643 -182 131 -65 177 -97 65 -46 -103 46 -286 104 -414 130
-99 20 -144 23 -339 23 -179 0 -242 -4 -310 -18 -400 -85 -751 -316 -1054
-693 -412 -512 -718 -1224 -1000 -2329 -359 -1406 -536 -1942 -797 -2419 -304
-555 -652 -887 -1041 -993 -99 -27 -292 -25 -387 5 -77 25 -94 42 -20 21 76
-21 262 -16 358 10 300 80 578 319 844 726 253 389 565 1080 746 1650 101 322
160 552 267 1055 110 515 161 711 261 1015 310 944 760 1579 1323 1869 285
147 561 203 855 176z m-7737 -140 c128 -27 234 -50 235 -50 1 0 -50 -53 -113
-118 l-115 -119 -75 13 c-161 28 -331 11 -490 -51 -401 -154 -822 -419 -889
-558 -23 -46 -27 -116 -11 -148 8 -13 7 -19 0 -19 -53 0 -1552 -228 -1587
-241 -24 -9 -33 -52 -14 -64 14 -8 713 -256 979 -346 128 -43 249 -79 268 -79
60 0 1071 142 1524 214 107 17 170 22 239 18 l95 -5 -90 -85 -89 -85 -895 -83
c-2081 -195 -5604 -558 -8235 -849 l-1309 -146 -476 150 c-1039 328 -2491 775
-3482 1072 -246 74 -442 136 -437 138 30 10 1655 166 1660 159 3 -5 18 -91 33
-191 15 -100 29 -190 32 -199 5 -17 36 -18 469 -18 l465 0 4 23 c7 29 76 475
76 487 0 5 15 12 33 15 17 3 759 73 1647 155 2556 238 3846 367 6024 600 669
71 1225 130 1236 130 20 0 20 -1 -4 -43 -84 -142 -77 -290 17 -361 47 -36 110
-56 177 -56 84 0 648 125 996 221 164 45 309 84 322 87 12 2 22 8 22 12 0 4
-10 6 -22 4 -13 -2 -166 -26 -340 -54 -174 -28 -462 -82 -640 -121 -333 -72
-366 -76 -428 -44 -14 7 -36 25 -50 40 -55 59 -16 206 78 298 l38 37 514 55
c283 30 660 71 838 91 178 20 324 35 325 33 29 -45 113 -128 165 -163 303
-201 720 -95 878 223 15 31 29 58 31 61 6 6 104 18 123 14 8 -2 120 -26 248
-54z m982 -210 c311 -66 828 -176 1150 -244 533 -112 585 -125 582 -142 -2
-11 -41 -178 -88 -373 -46 -194 -84 -354 -84 -355 0 0 -24 -1 -54 -1 -37 0
-60 -5 -73 -17 -19 -17 -27 -16 -186 35 -92 28 -163 53 -159 54 4 1 94 9 200
18 107 9 200 19 208 22 8 3 14 15 14 27 0 19 -51 47 -377 208 -345 170 -655
316 -823 389 l-66 28 -184 -39 c-102 -21 -225 -48 -274 -59 l-88 -21 -47 43
c-98 92 -247 192 -386 259 -49 23 -92 44 -94 46 -3 1 27 35 66 75 39 40 86 96
103 125 31 50 35 54 64 48 17 -3 285 -60 596 -126z m-985 -253 c241 -63 512
-211 799 -437 93 -73 109 -90 84 -90 -7 0 -67 -26 -133 -59 -169 -82 -334
-194 -555 -374 l-84 -69 -76 4 c-172 11 -392 166 -548 388 -89 126 -84 125
-240 86 -259 -66 -428 -87 -527 -66 -47 10 -68 21 -99 51 -34 34 -38 43 -32
72 19 96 173 202 461 318 222 88 477 181 540 195 96 22 288 13 410 -19z m1546
-331 c184 -90 409 -198 501 -240 92 -42 198 -90 235 -108 l68 -31 -150 -28
c-82 -15 -161 -29 -175 -30 -14 -1 -223 63 -465 143 -432 143 -441 146 -500
138 -33 -4 -74 -10 -90 -14 -28 -6 -34 -2 -68 44 -21 28 -72 89 -113 135 -69
78 -73 85 -52 89 13 3 120 17 238 31 183 22 229 29 236 34 1 1 151 -73 335
-163z m-14118 -87 c50 -23 61 -91 22 -133 -50 -54 -135 -17 -135 59 0 25 8 44
25 60 26 27 51 31 88 14z m-610 -30 c25 -31 22 -85 -8 -114 -39 -40 -96 -32
-120 16 -22 42 -18 67 15 101 26 25 36 29 63 24 18 -3 40 -16 50 -27z m311 9
c40 -35 43 -78 11 -116 -61 -73 -168 -5 -131 82 24 58 76 73 120 34z m627 -7
c31 -31 36 -59 17 -94 -26 -50 -77 -61 -122 -26 -43 34 -33 119 17 139 38 15
58 11 88 -19z m10840 -184 c75 -64 211 -91 429 -85 l145 4 -50 -76 c-63 -95
-119 -200 -111 -207 12 -13 214 134 280 204 l69 73 80 -85 c95 -103 174 -165
272 -216 l73 -37 -57 -6 c-179 -19 -815 -91 -981 -111 -107 -13 -278 -33 -380
-45 l-185 -22 -175 62 c-96 34 -326 113 -510 176 -184 63 -342 117 -350 120
-8 4 208 48 480 100 380 72 894 173 928 183 2 1 21 -14 43 -32z m-10926 -6
l60 -7 -54 -5 c-29 -4 -57 -12 -61 -18 -9 -16 -21 -16 -30 -1 -5 9 -35 10
-108 5 l-100 -7 43 -127 c23 -69 45 -126 49 -126 5 0 29 48 54 107 25 59 48
106 49 104 2 -2 -17 -54 -41 -117 -52 -131 -54 -126 57 -128 92 -2 66 -18 -41
-25 -221 -16 -732 -5 -732 15 0 5 27 9 59 9 33 0 62 4 66 9 6 11 -94 261 -105
261 -4 0 -20 -24 -36 -54 -16 -30 -30 -54 -31 -52 -2 1 8 30 22 64 14 34 25
66 25 72 0 5 -19 11 -42 11 -69 2 -21 9 123 19 140 9 670 3 774 -9z m-2031
-571 c642 -218 2820 -941 3449 -1145 l328 -107 -5 -26 c-3 -15 -13 -168 -22
-339 l-18 -313 -22 0 c-13 0 -405 145 -871 321 -1097 416 -3113 1157 -3520
1294 -10 3 -13 66 -13 270 l0 265 23 0 c13 0 314 -99 671 -220z m1981 165 c17
-16 25 -35 25 -60 0 -89 -117 -116 -150 -34 -36 85 62 158 125 94z m-611 -7
c15 -13 29 -37 32 -55 5 -27 1 -37 -24 -63 -36 -36 -71 -39 -106 -7 -38 34
-39 85 -1 122 30 31 66 32 99 3z m290 11 c49 -23 58 -97 16 -139 -47 -47 -130
-5 -130 65 0 25 8 44 25 60 26 27 51 31 89 14z m12560 -263 c8 -31 182 -214
349 -366 70 -63 125 -116 123 -117 -2 -2 -556 -67 -1232 -143 -1356 -154
-3446 -397 -3483 -405 -14 -4 -28 -18 -34 -35 -13 -33 -7 -32 -232 -55 -1146
-118 -3546 -402 -5530 -655 -209 -26 -381 -47 -381 -47 -1 1 -4 151 -6 334
l-3 332 35 5 c19 4 654 71 1410 151 2025 213 4480 488 6805 760 374 44 1236
150 1745 214 212 27 395 49 406 50 15 1 24 -6 28 -23z m-14494 -406 c1345
-550 3914 -1560 3971 -1560 l31 0 -6 -77 c-7 -87 -30 -650 -46 -1108 -37
-1089 -52 -2061 -48 -3128 2 -488 2 -887 0 -887 -1 0 -521 253 -1155 563 -634
310 -1600 781 -2148 1047 l-997 483 -6 106 c-3 58 -9 1147 -12 2420 -6 1974
-5 2313 7 2309 8 -3 192 -79 409 -168z m15193 -263 c449 -366 898 -628 1367
-799 l105 -38 -60 5 c-33 3 -150 12 -260 20 -282 22 -834 77 -1350 135 -486
55 -1268 151 -1274 156 -10 9 83 139 148 207 234 245 632 381 1154 395 l67 2
103 -83z m-4988 -1054 c-8 -834 -25 -3680 -25 -4158 l0 -390 -1448 -208 c-796
-114 -2200 -319 -3119 -454 -920 -136 -1676 -244 -1679 -240 -4 3 3 172 15
374 72 1243 121 2932 121 4220 l0 622 33 6 c17 3 176 23 352 45 1640 208 4811
644 5585 769 63 10 128 19 143 20 l28 1 -6 -607z m3905 398 c256 -33 668 -83
915 -110 1162 -131 1723 -172 2281 -168 l252 2 12 -35 c59 -169 257 -589 361
-766 167 -284 372 -533 519 -630 l40 -27 -30 -40 c-382 -519 -882 -813 -1540
-904 -173 -24 -542 -23 -740 1 -557 67 -1098 233 -1684 514 l-161 77 -90 0
c-73 0 -100 -5 -143 -24 -67 -30 -143 -113 -174 -189 -22 -54 -23 -69 -22
-277 1 -206 3 -223 24 -273 29 -68 89 -121 259 -233 409 -270 971 -460 1670
-564 90 -13 167 -28 171 -32 10 -10 142 -364 138 -368 -2 -2 -41 8 -88 21
-241 71 -496 29 -726 -121 -106 -68 -300 -259 -393 -385 -104 -140 -220 -344
-297 -520 l-33 -75 -11 30 c-6 17 -70 184 -141 372 -71 189 -197 517 -279 730
l-150 388 -195 865 c-182 805 -212 932 -214 904 -1 -6 74 -433 165 -950 180
-1021 179 -1015 364 -2633 l50 -443 -20 -33 c-35 -56 -152 -158 -225 -196
-301 -157 -787 -181 -1392 -68 -66 12 -113 26 -113 33 0 6 -16 130 -35 274
-42 314 -115 963 -150 1332 -161 1691 -164 2817 -9 3430 165 655 555 1055
1119 1146 117 19 200 12 715 -55z m-14360 -3976 l190 -95 -7 -83 c-11 -117 -8
-1242 3 -1359 5 -54 8 -98 5 -98 -2 0 -61 15 -130 34 -69 19 -145 40 -168 46
l-43 11 0 247 c0 358 -28 1187 -45 1345 -3 26 -3 47 0 47 3 0 91 -43 195 -95z
m16224 -65 c60 -9 75 -16 112 -50 24 -22 89 -74 145 -115 l102 -75 -45 0
c-146 0 -338 -118 -489 -300 -147 -177 -253 -381 -349 -670 -95 -288 -196
-478 -335 -627 -88 -96 -162 -150 -290 -212 -210 -103 -309 -241 -331 -460
-11 -119 16 -212 93 -320 l17 -24 -31 16 c-101 53 -166 216 -167 422 -1 114 0
123 30 185 17 36 61 109 98 163 239 352 364 818 316 1185 l-10 73 66 110 c36
60 99 155 141 210 277 368 597 536 927 489z m-15618 -323 c-14 -182 -26 -488
-31 -772 -3 -165 -8 -322 -11 -350 l-5 -50 -165 -38 c-91 -22 -167 -37 -170
-35 -2 3 1 67 8 144 13 164 16 953 5 1202 l-8 172 191 -95 192 -96 -6 -82z
m9909 -794 c-14 -85 -45 -988 -45 -1299 0 -122 -3 -235 -6 -251 -6 -30 -8 -31
-182 -77 -96 -25 -177 -45 -178 -43 -2 2 3 84 11 183 32 394 42 1128 19 1395
l-6 66 174 25 c230 34 218 34 213 1z m-419 -100 c-25 -274 -31 -448 -31 -981
0 -320 -1 -582 -2 -582 -2 0 -67 32 -146 71 l-143 72 -13 481 c-7 265 -18 587
-25 716 -7 129 -13 236 -12 236 2 2 339 52 360 53 17 1 18 -5 12 -66z m-6089
-746 c-3 -12 -11 -134 -18 -272 -13 -267 -6 -1026 10 -1210 5 -55 8 -101 7
-102 -3 -4 -326 84 -332 90 -3 3 -9 202 -14 443 -10 453 -24 835 -40 1104 -6
85 -10 158 -10 163 0 4 90 -38 201 -93 182 -92 200 -103 196 -123z m163 -37
c22 0 86 7 142 15 55 9 103 13 106 10 3 -2 0 -114 -7 -247 -18 -370 -31 -770
-32 -998 0 -113 -4 -216 -8 -229 -6 -23 -20 -28 -170 -63 -90 -22 -164 -38
-165 -36 -1 2 1 41 5 88 16 175 22 979 10 1230 -7 135 -14 253 -17 263 -5 16
0 15 45 -7 29 -15 67 -26 91 -26z m10208 -102 c41 -139 77 -401 107 -773 35
-445 12 -547 -165 -726 -137 -139 -292 -220 -515 -271 -138 -32 -341 -30 -455
5 -160 48 -303 110 -609 262 -346 172 -415 203 -841 380 -610 253 -852 395
-969 571 -27 40 -52 83 -56 95 -22 69 59 175 178 234 131 64 197 74 507 77
l275 3 -47 -44 c-86 -79 -124 -201 -98 -311 14 -60 21 -56 39 20 30 124 92
224 190 304 51 42 55 44 159 55 59 7 127 15 150 18 l44 6 -56 -53 c-110 -104
-164 -286 -113 -384 8 -17 13 -9 28 48 24 95 75 194 157 306 l70 95 162 27
c101 17 169 24 179 18 9 -4 79 -19 155 -32 l138 -23 -6 -45 c-9 -67 10 -273
34 -365 93 -363 327 -465 644 -279 147 86 294 252 346 390 30 80 41 137 48
242 l7 94 76 29 c42 16 105 47 140 68 35 21 67 37 70 35 3 -2 16 -36 27 -76z
m-338 -91 c0 -53 -42 -188 -87 -276 -135 -270 -490 -484 -668 -402 -81 37
-149 130 -199 269 -25 70 -68 265 -80 363 l-5 45 52 -7 c29 -4 143 -13 254
-20 228 -14 462 -3 613 30 117 25 120 25 120 -2z m4040 -945 c0 -77 108 -693
125 -710 2 -2 6 6 10 19 50 216 115 601 115 680 l0 69 150 0 c410 0 1043 -66
1402 -146 384 -85 649 -200 798 -344 87 -85 115 -142 115 -235 -1 -83 -19
-124 -91 -204 -215 -239 -776 -408 -1614 -485 -872 -81 -1698 -66 -2255 40
-670 128 -1129 374 -1162 622 -29 213 309 433 886 577 406 101 946 168 1394
174 l127 1 0 -58z"/>
<path d="M26915 23115 c-63 -62 -3 -169 84 -150 96 21 75 175 -24 175 -25 0
-44 -8 -60 -25z"/>
<path d="M23437 20923 c-32 -2 -57 -8 -55 -12 2 -4 19 -54 38 -109 19 -56 38
-102 41 -102 7 0 99 205 99 220 0 6 -15 9 -32 8 -18 -1 -59 -3 -91 -5z"/>
<path d="M23130 20915 c0 -19 95 -234 100 -228 4 5 22 53 40 108 18 55 35 106
38 113 3 9 -18 12 -87 12 -50 0 -91 -2 -91 -5z"/>
<path d="M23086 20870 c-9 -19 -34 -78 -55 -130 l-39 -95 61 -3 c34 -2 81 -1
104 3 l42 6 -26 67 c-14 37 -35 94 -48 127 l-22 60 -17 -35z"/>
<path d="M23333 20844 c-3 -10 -22 -57 -40 -103 -18 -47 -30 -87 -28 -89 9 -9
155 -14 155 -6 0 16 -62 199 -71 208 -5 6 -11 1 -16 -10z"/>
<path d="M18980 19329 c-363 -54 -1936 -321 -1989 -337 -21 -7 -6 -19 125 -92
82 -45 334 -187 559 -315 521 -295 968 -543 1020 -566 41 -18 41 -18 378 36
410 66 1233 205 1642 278 280 50 300 55 303 75 3 19 -38 42 -360 203 -403 202
-607 307 -1095 570 -220 119 -341 179 -360 178 -15 -1 -116 -14 -223 -30z
m573 -206 c349 -170 927 -464 1208 -615 l157 -83 -367 -53 c-359 -51 -1282
-193 -1634 -250 l-177 -28 -39 23 c-21 12 -407 209 -857 437 -451 228 -818
418 -818 423 1 4 231 38 510 75 817 108 1239 167 1451 202 109 19 204 34 211
35 8 0 167 -74 355 -166z"/>
<path d="M18985 19113 c-135 -8 -373 -38 -583 -74 -224 -37 -572 -114 -572
-126 0 -21 459 33 751 87 215 40 459 99 459 111 0 5 -1 8 -2 7 -2 -1 -25 -3
-53 -5z"/>
<path d="M18475 18789 c-27 -4 -80 -13 -117 -19 -38 -7 -68 -15 -68 -20 0 -11
182 -98 232 -110 24 -5 350 -53 726 -105 628 -88 688 -94 750 -85 112 17 172
31 172 39 0 5 -48 31 -108 59 l-107 50 -690 96 c-380 53 -701 98 -715 100 -14
2 -47 0 -75 -5z"/>
<path d="M16363 18920 c-292 -44 -892 -145 -1133 -191 -118 -22 -231 -43 -250
-46 -30 -4 -66 12 -278 126 -183 99 -251 131 -278 131 -52 0 -515 -71 -979
-150 -886 -151 -1240 -213 -1247 -219 -4 -3 82 -55 190 -116 108 -60 323 -181
477 -268 374 -212 979 -549 1038 -578 58 -28 -2 -36 975 127 l743 123 192
-110 c106 -61 208 -120 229 -130 l36 -18 449 64 c803 115 1818 285 1842 309 7
8 11 21 8 29 -3 8 -263 143 -579 300 -315 157 -721 367 -903 466 -181 100
-332 181 -335 180 -3 0 -91 -14 -197 -29z m-1277 -370 c809 -404 1057 -537
1024 -544 -14 -3 -137 -21 -275 -41 -342 -49 -956 -142 -1455 -221 l-415 -66
-195 102 c-107 56 -321 165 -475 242 -154 77 -458 231 -675 341 l-395 201 130
18 c72 10 387 52 700 93 623 83 1062 145 1225 174 58 10 119 19 136 20 22 1
216 -92 670 -319z m1851 137 c434 -210 1306 -667 1285 -674 -4 -1 -162 -25
-352 -53 -396 -58 -1121 -177 -1515 -249 l-269 -49 -208 101 c-115 55 -207
102 -205 104 2 2 128 25 281 53 152 27 280 51 285 54 31 20 -18 51 -327 205
-180 89 -462 233 -626 319 l-300 157 50 7 c27 4 166 21 309 38 255 31 1036
141 1125 159 25 5 55 9 67 10 12 1 192 -81 400 -182z"/>
<path d="M14105 18659 c-312 -25 -866 -120 -1065 -183 l-45 -14 60 -1 c117 -2
519 52 780 105 180 36 385 87 385 96 0 4 -3 7 -7 7 -5 -1 -53 -5 -108 -10z"/>
<path d="M16360 18674 c-153 -16 -350 -46 -530 -80 -250 -46 -510 -114 -439
-114 51 0 357 34 496 55 270 41 616 113 694 144 35 14 -67 12 -221 -5z"/>
<path d="M11030 18814 c0 -18 111 -236 118 -230 4 4 25 56 48 114 l41 107 -51
7 c-67 8 -156 10 -156 2z"/>
<path d="M11341 18728 c17 -46 36 -96 41 -113 6 -16 14 -34 18 -38 6 -7 90
204 90 226 0 4 -40 7 -90 7 l-89 0 30 -82z"/>
<path d="M11476 18667 c-21 -61 -41 -118 -43 -124 -4 -10 17 -13 86 -13 50 0
91 3 91 8 0 13 -85 242 -90 242 -3 0 -22 -51 -44 -113z"/>
<path d="M11227 18648 l-45 -113 90 -3 c50 -1 93 -1 96 2 5 5 -75 204 -88 219
-4 5 -28 -43 -53 -105z"/>
<path d="M16700 16346 l-2355 -271 -3 -1058 -2 -1059 37 6 c21 3 1071 139
2333 301 1262 162 2310 297 2328 300 l32 6 0 1024 c0 564 -3 1025 -7 1024 -5
-1 -1068 -123 -2363 -273z m435 -666 c54 -23 93 -64 123 -129 21 -45 24 -64
20 -125 -10 -153 -105 -246 -250 -246 -154 0 -253 105 -252 265 1 197 179 313
359 235z"/>
<path d="M16705 13865 l-2360 -271 -3 -1057 c-2 -843 0 -1057 10 -1057 39 2
4709 607 4713 612 3 2 4 464 3 1024 l-3 1020 -2360 -271z m423 -661 c91 -37
152 -136 152 -244 0 -153 -107 -263 -256 -262 -103 1 -174 45 -221 136 -38 72
-38 179 -1 251 32 61 59 87 118 114 55 25 155 28 208 5z"/>
<path d="M23245 15098 c123 -147 447 -329 562 -316 26 3 22 7 -47 52 -212 138
-494 296 -530 296 -7 0 0 -15 15 -32z"/>
</g>
</svg>
